<?xml version="1.0" encoding="UTF-8" standalone="no"?>
<!DOCTYPE svg PUBLIC "-//W3C//DTD SVG 1.1//EN" "http://www.w3.org/Graphics/SVG/1.1/DTD/svg11.dtd">
<svg width="100%" height="100%" fill = "#3E4447" viewBox="0 0 2048 2048" version="1.1" xmlns="http://www.w3.org/2000/svg" xmlns:xlink="http://www.w3.org/1999/xlink" xml:space="preserve" style="fill-rule:evenodd;clip-rule:evenodd;stroke-linecap:round;stroke-linejoin:round;stroke-miterlimit:1.5;">
    <g id="Layer2">
        <path d="M202.831,689.769C208.975,694.584 214.616,692.919 220.18,690.252C317.471,448.598 885.777,199.133 1041.75,372.705C1152.82,496.295 1000.75,697.963 818.833,832.788C694.897,924.643 529.834,969.247 361.847,994.789C326.851,1001.78 321.171,1011.27 355.585,1024.18C472.748,1068.14 603.432,1270.88 713.899,1424.13C839.5,1598.37 1066.59,1781 1268.23,1776.85C1293.15,1772.71 1310.27,1761.34 1310.63,1734.45C1301.73,1729.02 1292.41,1727.09 1282.2,1732.52C1279.29,1741.99 1272.38,1750.95 1261.83,1759.44C1125.05,1747.59 923.95,1587.83 806.415,1429.8C664.854,1239.48 561.405,1111.64 426.199,1032.37L425.199,1000.39C559.188,986.48 691.456,956.808 798.312,901.197C1026.18,782.606 1163.88,583.291 1134.75,429.083C1032.02,32.742 240.796,459.792 202.831,689.769" style="stroke:#3E4447;stroke-width:1.38px;"/>
    </g>
    <g id="Layer3" transform="matrix(1,0,0,1,1,0)">
        <path d="M776.998,1099.9C758.084,1101.74 767.126,1135.96 781.973,1140.33C799.897,1145.59 811.865,1162.77 827.984,1159.7C867.931,1152.09 904.713,1102.32 911.321,1039.58C922.743,931.142 839.192,941.52 813.065,976.149C739.783,1070.48 779.681,1235.94 862.817,1236.72C895.741,1237.02 922.776,1165.42 940.547,1132.86C941.212,1131.64 947.39,1084.36 947.39,1084.36C917.773,1130.95 874.392,1221.63 851.002,1213.71C792.932,1145.18 844.971,963.078 873.387,974.283C897.21,983.678 862.966,1115.18 827.365,1128.51C827.365,1128.51 777.623,1096.79 776.998,1099.9" style="stroke:#3E4447;stroke-width:1.38px;"/>
        <path d="M774.599,1100.49L779.161,1138.82L803.04,1161.94L826.765,1161.94L830.72,1154.49L826.613,1130.3L821.138,1118.44L781.594,1092.13L774.599,1100.49" style="stroke:#3E4447;stroke-width:1.38px;"/>
    </g>
    <g id="Layer4">
        <path d="M1076.12,989.828C1092.22,989.086 1086.79,983.169 1070.54,973.963C1032.44,959.069 972.969,1012.43 949.256,1082.49C915.056,1183.53 973.124,1230.85 1026.99,1219.3C1063.24,1204.99 1077.61,1089.74 1108.45,1010.97C1108.45,1010.97 1131.22,899.785 1130.84,900.28C1115.57,920.371 1020.45,1198.69 1003.98,1189.45C986.789,1126.38 1035.43,1015.74 1076.12,989.828" style="stroke:#3E4447;stroke-width:1.38px;"/>
        <path d="M1218.31,1044.53L1223.58,988.61C1194.33,1035.6 1177.62,1092.54 1157.14,1146.49C1148.19,1019.66 1177.28,965.004 1167.66,916.251C1159.37,902.051 1135.84,895.779 1128.85,899.826C1110.2,971.525 1088.36,1094.4 1128.85,1166.89C1134.8,1177.54 1164.75,1188 1172.93,1172.81C1185.58,1152.71 1203.94,1072.64 1218.31,1044.53" style="stroke:#3E4447;stroke-width:1.38px;"/>
    </g>
    <g id="Layer5">
        <path d="M1326.92,928.316C1348.44,918.096 1359.92,921.512 1358.08,916.504C1354.45,906.638 1340.14,903.776 1322.94,902.881C1225.7,897.826 1180.19,1045.81 1245.05,1113.91C1298.96,1158.91 1336.03,1147.04 1366.26,1118.29C1401.33,1082.87 1416.76,1042.49 1435.81,1003.83L1447.34,927.124C1401.19,1008.61 1353.37,1101.36 1298.3,1116.7C1263.64,1076.25 1275.8,949.786 1326.92,928.316" style="stroke:#3E4447;stroke-width:1.38px;"/>
    </g>
    <g id="Layer6">
        <path d="M1514.2,704.3C1523.94,683.926 1534.73,678.607 1556.02,686.528C1571.68,692.352 1576.16,697.576 1573.69,716.198C1573.69,716.198 1487.96,1113.66 1498.55,1150.15C1501.34,1159.78 1579.88,1061.09 1598.11,1014.89C1599.82,1010.57 1615.09,1015.02 1615.02,1019.28C1614.51,1051.02 1540.05,1186.45 1507.52,1189.88C1477.99,1195.25 1461.29,1183.86 1445.95,1160.17C1408.11,1093.16 1452.71,833.033 1514.2,704.3Z" style="stroke:#3E4447;stroke-width:1.38px;"/>
    </g>
    <g id="Layer7">
        <path d="M1377.35,859.58C1399.94,822.877 1612.14,797.604 1647.29,799.829C1665.27,800.967 1673.19,810.09 1665.49,811.63C1563.34,822.667 1485.49,845.486 1395.35,869.862C1384.66,871.371 1379.35,867.224 1377.35,859.58" style="stroke:#3E4447;stroke-width:1.38px;"/>
    </g>
    <g id="Layer1">
        <path d="M404.837,725.386C398.369,704.433 390.475,642.407 365.02,647.955C345.666,652.173 344.97,661.835 339.488,724.693C329.313,841.355 333.115,972.497 347.292,1066.33C356.529,1127.46 374.562,1170.84 380.91,1190.65C391.006,1222.15 394.206,1241.77 414.5,1240.85C436.324,1239.85 437.651,1245.48 434.01,1185.38C432.752,1164.63 437.582,1124.06 435.325,1075.79C429.16,943.897 413.28,751.444 404.837,725.386Z" style="stroke:#3E4447;stroke-width:1.38px;"/>
    </g>
</svg>
